HIERARCHY
ROOT Hips
{
 OFFSET 0.000000 0.000000 0.000000
 CHANNELS 6 Xposition Yposition Zposition Yrotation Xrotation Zrotation
 JOINT Chest
 {
  OFFSET 0.000000 9.585900 0.002600
  CHANNELS 3 Yrotation Xrotation Zrotation
  JOINT Chest2
  {
   OFFSET 0.000000 9.601200 -0.005300
   CHANNELS 3 Yrotation Xrotation Zrotation
   JOINT Chest3
   {
    OFFSET 0.000000 9.561800 0.000000
    CHANNELS 3 Yrotation Xrotation Zrotation
    JOINT Chest4
    {
     OFFSET 0.000000 9.552100 0.000000
     CHANNELS 3 Yrotation Xrotation Zrotation
     JOINT Neck
     {
      OFFSET 0.000000 14.453000 0.000000
      CHANNELS 3 Yrotation Xrotation Zrotation
      JOINT Head
      {
       OFFSET 0.000000 8.936500 -0.011300
       CHANNELS 3 Yrotation Xrotation Zrotation
       End Site
       {
        OFFSET 0.000000 17.073600 -0.006000
       }
      }
     }
     JOINT RightCollar
     {
      OFFSET -2.921100 9.558500 0.000000
      CHANNELS 3 Yrotation Xrotation Zrotation
      JOINT RightShoulder
      {
       OFFSET -13.519700 0.000000 0.000000
       CHANNELS 3 Yrotation Xrotation Zrotation
       JOINT RightElbow
       {
        OFFSET 0.000000 -29.696600 0.000000
        CHANNELS 3 Yrotation Xrotation Zrotation
        JOINT RightWrist
        {
         OFFSET 0.000000 -24.004700 0.000000
         CHANNELS 3 Yrotation Xrotation Zrotation
         End Site
         {
          OFFSET 0.000000 -17.728500 0.000000
         }
        }
       }
      }
     }
     JOINT LeftCollar
     {
      OFFSET 2.921100 9.558500 0.000000
      CHANNELS 3 Yrotation Xrotation Zrotation
      JOINT LeftShoulder
      {
       OFFSET 13.519700 0.000000 0.000000
       CHANNELS 3 Yrotation Xrotation Zrotation
       JOINT LeftElbow
       {
        OFFSET 0.000000 -29.696600 0.000000
        CHANNELS 3 Yrotation Xrotation Zrotation
        JOINT LeftWrist
        {
         OFFSET 0.000000 -24.004700 0.000000
         CHANNELS 3 Yrotation Xrotation Zrotation
         End Site
         {
          OFFSET 0.000000 -17.728500 0.000000
         }
        }
       }
      }
     }
    }
   }
  }
 }
 JOINT RightHip
 {
  OFFSET -7.771700 -0.012900 -0.001300
  CHANNELS 3 Yrotation Xrotation Zrotation
  JOINT RightKnee
  {
   OFFSET 0.000000 -40.869800 0.001200
   CHANNELS 3 Yrotation Xrotation Zrotation
   JOINT RightAnkle
   {
    OFFSET 0.000000 -39.717900 0.002100
    CHANNELS 3 Yrotation Xrotation Zrotation
    JOINT RightToe
    {
     OFFSET 0.000000 -4.965400 11.033500
     CHANNELS 3 Yrotation Xrotation Zrotation
     End Site
     {
      OFFSET 0.000000 -1.423100 5.872300
     }
    }
   }
  }
 }
 JOINT LeftHip
 {
  OFFSET 7.771700 -0.012900 -0.001300
  CHANNELS 3 Yrotation Xrotation Zrotation
  JOINT LeftKnee
  {
   OFFSET 0.000000 -40.869800 0.001200
   CHANNELS 3 Yrotation Xrotation Zrotation
   JOINT LeftAnkle
   {
    OFFSET 0.000000 -39.717900 0.002100
    CHANNELS 3 Yrotation Xrotation Zrotation
    JOINT LeftToe
    {
     OFFSET 0.000000 -4.965400 11.033500
     CHANNELS 3 Yrotation Xrotation Zrotation
     End Site
     {
      OFFSET 0.000000 -1.423100 5.872300
     }
    }
   }
  }
 }
}
MOTION
Frames: 11
Frame Time: 0.008333
0.000000 85.388000 0.000000 0.000000 -5.767877 0.000000 0.000000 11.653817 0.000000 0.000000 -5.885947 0.000000 0.000000 -0.000000 0.000000 0.000000 -0.000000 0.000000 0.000000 12.528835 0.000000 0.000000 0.711642 0.000000 0.000000 -0.000000 0.000000 0.000000 0.000000 -90.000000 0.000000 -2.309062 0.000000 0.000000 2.309062 0.000000 0.000000 -0.000000 0.000000 0.000000 -0.000000 90.000000 0.000000 -2.309062 0.000000 0.000000 2.309062 0.000000 0.000000 8.520406 0.000000 0.000000 1.905762 0.000000 -0.000000 -4.658285 0.000000 0.000000 -0.000000 0.000000 0.000000 8.520406 0.000000 0.000000 1.905762 0.000000 -0.000000 -4.658285 0.000000 0.000000 -0.000000 0.000000
-92.377246 46.633241 -26.729886 175.448291 -33.101359 -2.967429 0.352982 19.626715 1.410680 0.022280 2.398102 0.196474 0.012059 3.929340 0.313040 0.231201 16.939027 1.395823 -0.714144 17.099162 -1.782407 -0.778639 -4.066498 -3.040397 0.470561 0.929064 -0.809585 0.993137 -8.880816 -16.564481 146.147248 -84.014493 -109.292863 6.568090 10.840181 -22.124539 -0.970249 0.087797 1.365955 -0.716230 -8.274432 15.376355 -150.806432 -79.316524 121.903826 -17.096008 21.217187 -3.142163 -2.877135 -53.605433 -5.146336 -156.463158 77.028639 -147.453308 -10.333443 -14.856570 -5.372578 0.006722 -0.214689 0.003837 -0.938079 -55.804730 11.914685 -116.102095 83.144226 -120.173938 6.785909 -6.118326 4.381600 0.044632 0.197013 0.021502
-92.377558 46.632606 -26.727926 175.448466 -33.104998 -2.974094 0.342212 19.625706 1.407452 0.007470 2.390403 0.190634 0.031979 3.937531 0.321075 0.215167 16.935143 1.387706 -0.752191 17.085237 -1.783449 -0.737119 -4.050421 -3.050551 0.475095 0.934944 -0.807350 0.990314 -8.886509 -16.569799 146.227230 -84.020229 -109.354648 6.567319 10.833764 -22.155011 -0.965863 0.086287 1.363963 -0.713546 -8.266980 15.365417 -150.768151 -79.317586 121.877465 -17.100686 21.220201 -3.142303 -2.880552 -53.603323 -5.138960 -156.413234 77.026142 -147.397869 -10.344436 -14.842493 -5.364968 0.019247 -0.219175 0.000186 -0.945454 -55.803030 11.927440 -116.089711 83.141985 -120.161521 6.778689 -6.116465 4.378101 0.045899 0.196483 0.026016
-92.379218 46.632082 -26.726192 175.449829 -33.111043 -2.976788 0.335651 19.629989 1.404296 0.007101 2.390161 0.190405 0.010348 3.929437 0.310848 0.227443 16.940413 1.391420 -0.762824 17.081192 -1.782127 -0.750928 -4.056164 -3.048539 0.471525 0.936136 -0.812557 0.955713 -8.897703 -16.552169 146.270193 -84.020069 -109.358474 6.566104 10.814077 -22.207780 -0.979195 0.082194 1.357901 -0.699719 -8.261344 15.363685 -150.696895 -79.319760 121.819102 -17.076288 21.184839 -3.135263 -2.881102 -53.598133 -5.138243 -156.383727 77.022743 -147.368802 -10.337813 -14.835620 -5.360944 0.026205 -0.217636 -0.000154 -0.937970 -55.798781 11.926326 -116.038661 83.136097 -120.110563 6.774261 -6.111676 4.383291 0.038439 0.194858 0.026848
-92.382029 46.631164 -26.723968 175.454523 -33.113180 -2.978428 0.325466 19.631513 1.398308 0.006869 2.389950 0.190259 0.006618 3.927446 0.309177 0.223257 16.938781 1.389330 -0.776887 17.076390 -1.780115 -0.813780 -4.077704 -3.030336 0.447940 0.929999 -0.816736 0.964548 -8.890110 -16.534056 146.232421 -84.017306 -109.315217 6.574589 10.805419 -22.194527 -0.974863 0.086040 1.355542 -0.700896 -8.264261 15.362861 -150.751225 -79.319452 121.863192 -17.064539 21.191830 -3.125643 -2.879997 -53.595819 -5.144527 -156.400901 77.025221 -147.383757 -10.340856 -14.834866 -5.358594 0.032268 -0.214672 -0.001266 -0.937723 -55.797001 11.924548 -115.968646 83.134630 -120.047048 6.776790 -6.103760 4.392531 0.029896 0.193179 0.025489
-92.384649 46.630855 -26.722701 175.454893 -33.121907 -2.981838 0.319621 19.638574 1.395080 -0.000996 2.387305 0.187362 0.013408 3.928172 0.312122 0.221602 16.938050 1.387889 -0.788191 17.072640 -1.778251 -0.864250 -4.094494 -3.012961 0.449313 0.932403 -0.816351 0.942613 -8.885685 -16.516874 146.220038 -84.013704 -109.291322 6.573244 10.797282 -22.213534 -0.971812 0.091512 1.354243 -0.707903 -8.276929 15.365245 -150.799424 -79.331822 121.898893 -17.057539 21.197558 -3.118144 -2.861136 -53.585413 -5.161363 -156.456045 77.032826 -147.423549 -10.353843 -14.833005 -5.354882 0.034646 -0.212635 -0.004172 -0.934877 -55.787705 11.925262 -115.920976 83.130668 -119.999400 6.782036 -6.105781 4.392550 0.041913 0.195607 0.027395
-92.389218 46.629192 -26.719805 175.458277 -33.116157 -2.978640 0.306604 19.632378 1.384617 0.003085 2.384915 0.187273 0.013305 3.929293 0.312731 0.222130 16.938440 1.387711 -0.791921 17.071336 -1.777592 -0.886030 -4.102254 -3.005225 0.445380 0.933168 -0.817891 0.917881 -8.876772 -16.495547 146.133855 -84.012860 -109.204474 6.581688 10.791777 -22.227183 -0.970791 0.093841 1.353867 -0.727860 -8.293665 15.367542 -150.780245 -79.352365 121.880758 -17.056639 21.193559 -3.120767 -2.844973 -53.592469 -5.186734 -156.521365 77.040312 -147.478762 -10.354075 -14.831360 -5.360832 0.003775 -0.206310 -0.000550 -0.906589 -55.799151 11.900526 -115.883830 83.126921 -119.961600 6.783824 -6.094942 4.408838 0.033727 0.189276 0.020994
-92.393172 46.627777 -26.717451 175.462301 -33.113163 -2.980519 0.299295 19.627572 1.381227 0.006088 2.385066 0.187922 0.010855 3.928920 0.312152 0.211688 16.933410 1.380751 -0.806987 17.066472 -1.773511 -0.886078 -4.101286 -3.003202 0.440679 0.941477 -0.818550 0.903181 -8.865577 -16.465330 145.958226 -84.005304 -109.031868 6.572320 10.820854 -22.269292 -0.973869 0.101441 1.352133 -0.723898 -8.298810 15.374030 -150.812141 -79.359024 121.891698 -17.060976 21.198186 -3.117193 -2.839590 -53.596014 -5.201965 -156.589039 77.048884 -147.538854 -10.343815 -14.829169 -5.373134 -0.007638 -0.201143 0.005913 -0.896093 -55.804816 11.889620 -115.856917 83.128771 -119.932476 6.781450 -6.088012 4.412813 0.034325 0.187455 0.021246
-92.396569 46.626472 -26.715442 175.470361 -33.111453 -2.987543 0.296899 19.623318 1.383628 0.004008 2.385477 0.188375 0.010711 3.923768 0.310120 0.205341 16.928380 1.376073 -0.824972 17.063768 -1.765937 -0.921830 -4.106751 -2.983027 0.418882 0.954383 -0.834101 0.897560 -8.850818 -16.412759 145.599565 -84.007689 -108.702259 6.597089 10.834836 -22.259702 -0.983950 0.110537 1.359278 -0.722031 -8.299294 15.372868 -150.779282 -79.364370 121.866057 -17.066195 21.195166 -3.126973 -2.845538 -53.596526 -5.207568 -156.649224 77.059646 -147.593752 -10.343546 -14.827816 -5.380619 0.023713 -0.196910 0.008480 -0.897117 -55.809255 11.885779 -115.853239 83.130006 -119.926026 6.782302 -6.084862 4.412048 0.025032 0.188057 0.022968
-92.400097 46.624888 -26.713338 175.490618 -33.107298 -2.998723 0.282837 19.615532 1.379317 0.003326 2.383747 0.187952 0.009528 3.921015 0.309461 0.200118 16.923221 1.373223 -0.845869 17.060886 -1.754244 -1.027404 -4.134708 -2.917153 0.411524 0.975281 -0.839882 0.887970 -8.844048 -16.373676 145.435797 -83.990774 -108.543120 6.612241 10.882122 -22.256321 -0.996193 0.118348 1.362338 -0.734967 -8.303122 15.372526 -150.684743 -79.372275 121.777865 -17.066678 21.201051 -3.126079 -2.861627 -53.598920 -5.211724 -156.689390 77.069362 -147.630240 -10.355476 -14.825900 -5.386068 0.047119 -0.193793 0.010196 -0.906675 -55.817151 11.881040 -115.823346 83.128831 -119.893561 6.771046 -6.073762 4.413680 0.037097 0.185349 0.023633
-92.403504 46.622558 -26.710418 175.502660 -33.096932 -3.003382 0.278253 19.596505 1.374656 0.002541 2.388488 0.187083 0.008622 3.919720 0.308654 0.185086 16.913875 1.364879 -0.860330 17.061503 -1.739074 -1.112241 -4.162183 -2.858244 0.416098 0.995523 -0.835044 0.868321 -8.828378 -16.328299 144.704780 -83.985694 -107.885623 6.660911 10.876731 -22.181937 -0.989396 0.130896 1.373966 -0.800849 -8.317675 15.362670 -150.430171 -79.377677 121.549441 -17.092767 21.205441 -3.175857 -2.869531 -53.607900 -5.220360 -156.722413 77.077326 -147.662032 -10.334916 -14.829722 -5.409463 0.040092 -0.185204 0.024259 -0.907893 -55.830698 11.875295 -115.781848 83.135378 -119.855005 6.761792 -6.058021 4.423379 0.053845 0.181170 0.020897
